#!OML:ASF I:\Actors\actors\Patient Classification 1\Patient 1\Session 1\Subject1.ASF
:FULLY-SPECIFIED
:DEGREES
226
root 0.157041 17.66 7.87448 11.5086 -10.0811 -9.78907
lowerback 1.75413 1.85389 5.04584
upperback 2.62031 2.48276 0.613316
thorax 1.90292 1.3265 -2.18999
lowerneck 5.03191 -5.80673 -0.409754
upperneck 26.1843 -9.7799 7.69429
head 7.67641 -4.18485 2.12756
rclavicle -1.94809e-014 2.94201e-014
rhumerus 73.2515 42.4913 -32.5913
rradius 36.93
rwrist 16.2711
rhand 10.1836 -31.6484
rfingers 7.12502
rthumb 35.3005 -58.1338
lclavicle -1.94809e-014 2.94201e-014
lhumerus -21.8589 -55.4575 95.1981
lradius 108.042
lwrist 68.2849
lhand -9.21464 -8.95245
lfingers 7.12502
lthumb 16.7398 20.3458
rfemur -13.3534 20.5861 23.2297
rtibia 9.78523
rfoot -9.78502 -14.7479
rtoes -3.8761
lfemur -0.524294 -34.9611 -7.79008
ltibia -1.79594
lfoot -24.9638 51.3634
ltoes 15.8959
227
root 0.145315 17.6593 7.87169 11.5441 -9.73419 -9.81564
lowerback 1.81116 1.88699 4.84982
upperback 2.69687 2.52501 0.726778
thorax 1.93849 1.34451 -1.9643
lowerneck 4.70657 -6.19658 -1.05915
upperneck 27.332 -10.3977 7.57955
head 8.18901 -4.49715 2.14762
rclavicle -2.56432e-014 -3.33958e-014
rhumerus 75.0268 42.9857 -30.3989
rradius 38.3079
rwrist 15.1438
rhand 11.207 -31.4027
rfingers 7.12502
rthumb 36.2702 -57.6524
lclavicle -2.56432e-014 -3.33958e-014
lhumerus -22.2297 -55.4179 95.5622
lradius 108.69
lwrist 67.9467
lhand -9.69614 -9.11964
lfingers 7.12502
lthumb 16.2762 20.2172
rfemur -13.3816 20.4632 23.3216
rtibia 9.80367
rfoot -9.82863 -14.9082
rtoes -3.62321
lfemur -0.76201 -34.9102 -7.55078
ltibia -1.73252
lfoot -24.2914 51.1895
ltoes 15.13
228
root 0.130742 17.6588 7.86866 11.5376 -9.35454 -9.8614
lowerback 1.85075 1.75526 4.30422
upperback 2.8204 2.33923 1.11378
thorax 1.98952 1.23918 -1.26316
lowerneck 4.52667 -6.43456 -1.91741
upperneck 28.3616 -10.7126 7.18405
head 8.62399 -4.7218 2.12822
rclavicle 1.2921e-014 1.35174e-014
rhumerus 77.2274 43.7619 -27.8783
rradius 39.6636
rwrist 14.3335
rhand 12.5963 -31.0314
rfingers 7.12502
rthumb 37.5844 -56.9425
lclavicle 1.2921e-014 1.35174e-014
lhumerus -22.3201 -54.9945 95.6805
lradius 109.429
lwrist 68.0043
lhand -10.3662 -8.81756
lfingers 7.12502
lthumb 15.631 20.5709
rfemur -13.3726 20.3349 23.4601
rtibia 9.85086
rfoot -9.87401 -15.1264
rtoes -3.54595
lfemur -1.00279 -34.835 -7.26656
ltibia -1.63781
lfoot -23.611 50.9496
ltoes 14.2744
229
root 0.118676 17.6589 7.86516 11.4884 -9.01425 -9.88243
lowerback 1.86963 1.74878 4.37901
upperback 3.00158 2.32631 1.0626
thorax 2.17095 1.24043 -1.35372
lowerneck 4.44422 -6.74791 -2.63613
upperneck 29.2735 -11.2084 7.18282
head 9.03897 -4.99717 2.20813
rclavicle -2.48481e-014 1.19271e-014
rhumerus 78.3737 44.2919 -26.7379
rradius 40.6668
rwrist 13.8133
rhand 13.6019 -30.5191
rfingers 7.12502
rthumb 38.5341 -56.171
lclavicle -2.48481e-014 1.19271e-014
lhumerus -22.1495 -55.2491 95.134
lradius 110.074
lwrist 68.5668
lhand -10.9271 -9.02995
lfingers 7.12502
lthumb 15.0907 20.4
rfemur -13.3002 20.1681 23.5762
rtibia 9.85467
rfoot -9.93498 -15.299
rtoes -3.58288
lfemur -1.16271 -34.8789 -7.07527
ltibia -1.55679
lfoot -23.2777 50.7689
ltoes 13.7786
230
root 0.108663 17.6594 7.86268 11.4279 -8.72892 -9.92231
lowerback 2.04542 1.79396 4.03237
upperback 3.07311 2.38848 1.27394
thorax 2.12467 1.26139 -0.948413
lowerneck 4.0665 -7.05588 -3.8127
upperneck 30.9598 -11.7767 7.26104
head 9.85028 -5.32053 2.37106
rclavicle -2.72335e-014 9.54166e-015
rhumerus 79.5259 45.1025 -25.1752
rradius 41.5165
rwrist 13.1389
rhand 14.3066 -30.3604
rfingers 7.12502
rthumb 39.1986 -55.8232
lclavicle -2.72335e-014 9.54166e-015
lhumerus -22.5979 -55.1564 95.6473
lradius 110.388
lwrist 68.9174
lhand -11.0749 -9.40841
lfingers 7.12502
lthumb 14.9483 20.0321
rfemur -13.1967 20.0188 23.7202
rtibia 9.85429
rfoot -10.0301 -15.4323
rtoes -3.41969
lfemur -1.23741 -34.953 -6.92936
ltibia -1.50627
lfoot -23.0942 50.6201
ltoes 13.5193
231
root 0.0962556 17.6608 7.85971 11.3884 -8.429 -10.0006
lowerback 2.06841 1.77781 4.2841
upperback 3.27731 2.3649 1.11156
thorax 2.34025 1.26338 -1.25091
lowerneck 3.46059 -7.22029 -4.60031
upperneck 32.6482 -12.1665 7.38708
head 10.7098 -5.51717 2.4904
rclavicle -3.33958e-014 -7.95139e-016
rhumerus 80.5529 45.7845 -24.3597
rradius 42.142
rwrist 12.6244
rhand 15.0946 -30.3916
rfingers 7.12502
rthumb 39.9407 -55.6356
lclavicle -3.33958e-014 -7.95139e-016
lhumerus -22.6479 -55.2188 95.2267
lradius 110.677
lwrist 69.1377
lhand -11.1146 -9.498
lfingers 7.12502
lthumb 14.9101 19.9454
rfemur -13.1258 19.8855 23.9151
rtibia 9.89003
rfoot -10.0882 -15.6242
rtoes -3.4509
lfemur -1.33487 -34.905 -6.69464
ltibia -1.4995
lfoot -22.6532 50.408
ltoes 13.0882
